<svg width="64" height="64" viewBox="0 0 64 64" fill="none" xmlns="http://www.w3.org/2000/svg">
  <!-- Background -->
  <rect width="64" height="64" rx="12" fill="#065f46"/>
  
  <!-- Diamond Shape -->
  <path d="M32 6L58 32L32 58L6 32L32 6Z" fill="#10b981" fill-opacity="0.3"/>
  
  <!-- House -->
  <path d="M32 14L50 30V50H14V30L32 14Z" fill="white"/>
  
  <!-- Roof -->
  <path d="M32 14L50 30H14L32 14Z" fill="white"/>
  
  <!-- Inner section -->
  <path d="M32 22L44 32V46H20V32L32 22Z" fill="#065f46"/>
  
  <!-- Door -->
  <path d="M28 46V36C28 35.4477 28.4477 35 29 35H35C35.5523 35 36 35.4477 36 36V46H28Z" fill="white"/>
  
  <!-- Door handle -->
  <circle cx="34" cy="41" r="1" fill="#065f46"/>
  
  <!-- Window Left -->
  <rect x="22" y="34" width="4" height="4" rx="0.5" fill="white"/>
  
  <!-- Window Right -->
  <rect x="38" y="34" width="4" height="4" rx="0.5" fill="white"/>
</svg>